<?xml version="1.0" encoding="UTF-8"?>
<svg xmlns="http://www.w3.org/2000/svg" viewBox="0 0 240 240" width="240" height="240">
  <!-- Escudo Básico -->
  <path d="M120 20c-55.2 0-100 44.8-100 100s44.8 100 100 100 100-44.8 100-100S175.2 20 120 20z" fill="#003366"/>
  <path d="M120 30c-49.7 0-90 40.3-90 90s40.3 90 90 90 90-40.3 90-90-40.3-90-90-90z" fill="#FFCC00"/>
  
  <!-- Estrela Central -->
  <path d="M120 50l14.5 44.7h47.1l-38.1 27.6 14.5 44.7-38-27.7-38.1 27.7 14.5-44.7-38-27.6h47l14.6-44.7z" fill="#003366"/>
  
  <!-- Texto Circular -->
  <path d="M120 25c-52.4 0-95 42.6-95 95s42.6 95 95 95 95-42.6 95-95-42.6-95-95-95zm0 10c47.1 0 85 37.9 85 85s-37.9 85-85 85-85-37.9-85-85 37.9-85 85-85z" fill="#003366"/>
  
  <!-- Faixa com o texto "POLÍCIA MILITAR" -->
  <path d="M120 180c-33.1 0-60-26.9-60-60s26.9-60 60-60 60 26.9 60 60-26.9 60-60 60zm0-110c-27.6 0-50 22.4-50 50s22.4 50 50 50 50-22.4 50-50-22.4-50-50-50z" fill="#003366"/>
  
  <!-- Texto "POLÍCIA MILITAR" no topo do círculo -->
  <g transform="translate(120 65)">
    <text transform="rotate(0)" font-family="Arial, sans-serif" font-weight="bold" font-size="10" text-anchor="middle" fill="#003366">POLÍCIA MILITAR</text>
  </g>
  
  <!-- Texto "DO PARÁ" na parte inferior do círculo -->
  <g transform="translate(120 175)">
    <text transform="rotate(0)" font-family="Arial, sans-serif" font-weight="bold" font-size="10" text-anchor="middle" fill="#003366">DO PARÁ</text>
  </g>
  
  <!-- Ano de fundação -->
  <g transform="translate(120 190)">
    <text transform="rotate(0)" font-family="Arial, sans-serif" font-size="8" text-anchor="middle" fill="#003366">1818</text>
  </g>
</svg>